<?xml version="1.0" encoding="UTF-8"?>
<!DOCTYPE svg PUBLIC "-//W3C//DTD SVG 1.1//EN" "http://www.w3.org/Graphics/SVG/1.1/DTD/svg11.dtd">
<!-- Creator: CorelDRAW -->
<svg xmlns="http://www.w3.org/2000/svg" xml:space="preserve" width="16.5354in" height="16.5354in" style="shape-rendering:geometricPrecision; text-rendering:geometricPrecision; image-rendering:optimizeQuality; fill-rule:evenodd; clip-rule:evenodd"
viewBox="0 0 16.5354 16.5354"
 xmlns:xlink="http://www.w3.org/1999/xlink">
 <defs>
  <style type="text/css">
   <![CDATA[
    .fil5 {fill:#16BAED}
    .fil7 {fill:#3985C5}
    .fil4 {fill:#39B779}
    .fil0 {fill:#4BB85B}
    .fil3 {fill:#4EB85B}
    .fil1 {fill:#4FBE9B}
    .fil2 {fill:#6ABE56}
    .fil6 {fill:#70CBD3}
    .fil8 {fill:#E53049}
    .fil9 {fill:#201E1E;fill-rule:nonzero}
   ]]>
  </style>
 </defs>
 <g id="Layer_x0020_1">
  <metadata id="CorelCorpID_0Corel-Layer"/>
  <g id="_227914744">
   <path id="_228494808" class="fil0" d="M10.6299 7.06766l-0.998807 0c-0.222677,0 -0.404858,0.182181 -0.404858,0.40487l0 0.593933c0,0.222669 0.182181,0.40487 0.404858,0.40487l0.998807 0 0 -1.40367z"/>
   <path id="_228494712" class="fil1" d="M6.90431 7.06766l-0.998803 0 0 1.40367 0.998803 0c0.222669,0 0.404874,-0.182201 0.404874,-0.40487l0 -0.593933c0,-0.222689 -0.182205,-0.40487 -0.404874,-0.40487z"/>
   <path id="_228494616" class="fil2" d="M8.56467 8.73451l-0.593933 0c-0.222669,0 -0.40487,0.182201 -0.40487,0.404882l0 0.998803 1.40368 0 0 -0.998803c0,-0.222681 -0.182185,-0.404882 -0.404874,-0.404882z"/>
   <path id="_228494520" class="fil3" d="M9.63111 8.73451l0.998807 0 0 1.40369 -1.40367 0 0 -0.998803c0,-0.222681 0.182181,-0.404882 0.404858,-0.404882z"/>
   <path id="_228494424" class="fil4" d="M7.3092 10.1382l-0.391508 0c-0.556689,0 -1.01217,-0.45548 -1.01217,-1.01219l0 -0.3915 0.998807 0c0.222677,0 0.40487,0.182201 0.40487,0.404882l0 0.998803z"/>
   <path id="_228494328" class="fil5" d="M8.96954 5.4008l-1.40368 0 0 0.998803c0,0.222681 0.182201,0.404862 0.40487,0.404862l0.593933 0c0.222689,0 0.404874,-0.182181 0.404874,-0.404862l0 -0.998803z"/>
   <path id="_228494232" class="fil6" d="M7.30919 5.4008l-0.391512 0c-0.556685,0 -1.01217,0.45548 -1.01217,1.01217l0 0.3915 0.998803 0c0.222669,0 0.404874,-0.182181 0.404874,-0.404862l0 -0.998803z"/>
   <path id="_228494136" class="fil7" d="M9.22625 5.4008l0.391496 0c0.556689,0 1.01217,0.45548 1.01217,1.01217l0 0.3915 -0.998807 0c-0.222677,0 -0.404858,-0.182181 -0.404858,-0.404862l0 -0.998803z"/>
   <path id="_228494040" class="fil8" d="M8.56467 7.06766l-0.593933 0c-0.222669,0 -0.40487,0.182181 -0.40487,0.40487l0 0.593933c0,0.222669 0.182201,0.40487 0.40487,0.40487l0.593933 0c0.222689,0 0.404874,-0.182201 0.404874,-0.40487l0 -0.593933c0,-0.222689 -0.182185,-0.40487 -0.404874,-0.40487z"/>
   <path id="_228493968" class="fil9" d="M6.3233 11.0161c0,0.0429685 -0.00687402,0.072748 -0.0206142,0.0893622 -0.0154685,0.0183346 -0.0443937,0.0275 -0.0867874,0.0275l-0.287846 0 0 -0.0627283 0.216524 0c0.0252087,0 0.0426772,-0.0028622 0.0524173,-0.00859055 0.0126024,-0.00802362 0.0189055,-0.0240551 0.0189055,-0.0481181 0,-0.0246339 -0.00630315,-0.0412441 -0.0189055,-0.0498386 -0.00974016,-0.00572835 -0.0272087,-0.00859449 -0.0524173,-0.00859449l-0.123724 0c-0.0418228,0 -0.0701772,-0.00744488 -0.0850709,-0.0223346 -0.0148937,-0.0148937 -0.0223425,-0.043248 -0.0223425,-0.0850709 0,-0.0435354 0.00687402,-0.0744646 0.020622,-0.0927992 0.0160433,-0.0217677 0.0449685,-0.0326535 0.0867913,-0.0326535l0.280114 0 0 0.0627283 -0.208803 0c-0.0252008,0 -0.0423858,0.0028622 -0.0515512,0.00859449 -0.0131772,0.00801969 -0.0197598,0.0246339 -0.0197598,0.0498386 0,0.0217638 0.00543701,0.0358031 0.0163228,0.0421024 0.00744488,0.00458268 0.0229134,0.00687402 0.0463937,0.00687402l0.132331 0c0.041248,0 0.0701732,0.0105945 0.0867874,0.0317913 0.0137402,0.0183346 0.0206142,0.0489803 0.0206142,0.091937zm0.353157 0.00258268l0 -0.175287c0,-0.0252047 -0.00629921,-0.0418189 -0.0188976,-0.0498386 -0.00916535,-0.00573228 -0.0263504,-0.00859449 -0.0515591,-0.00859449l-0.0524134 0c-0.0252087,0 -0.0423858,0.0028622 -0.0515551,0.00859449 -0.0131732,0.00801969 -0.0197677,0.0246339 -0.0197677,0.0498386l0 0.175287c0,0.0223346 0.00659449,0.0372283 0.0197677,0.0446772 0.00974016,0.00572835 0.0269213,0.00859449 0.0515551,0.00859449l0.0524134 0c0.024063,0 0.0409567,-0.00286614 0.0506969,-0.00859449 0.0131772,-0.00744882 0.0197598,-0.0223425 0.0197598,-0.0446772zm0.108268 -0.00773622c0,0.0429646 -0.00715748,0.0736102 -0.0214803,0.0919409 -0.0160394,0.0211969 -0.044685,0.0317913 -0.0859252,0.0317913l-0.195055 0c-0.0412402,0 -0.0701654,-0.0105945 -0.0867795,-0.0317913 -0.013748,-0.0183307 -0.020622,-0.0489764 -0.020622,-0.0919409l0 -0.164976c0,-0.0429646 0.00687402,-0.0736102 0.020622,-0.0919449 0.0166142,-0.021189 0.0455394,-0.0317913 0.0867795,-0.0317913l0.195055 0c0.0412402,0 0.0698858,0.0106024 0.0859252,0.0317913 0.0143228,0.0183346 0.0214803,0.0489803 0.0214803,0.0919449l0 0.164976zm0.475173 0c0,0.0429646 -0.00715748,0.0736102 -0.0214803,0.0919409 -0.0160394,0.0211969 -0.044685,0.0317913 -0.0859252,0.0317913l-0.195055 0c-0.0412402,0 -0.0701654,-0.0105945 -0.0867795,-0.0317913 -0.013748,-0.0183307 -0.020626,-0.0489764 -0.020626,-0.0919409l0 -0.288713 0.107406 0 0 0.296449c0,0.0223346 0.00659055,0.0372283 0.0197677,0.0446772 0.00974016,0.00572835 0.0269173,0.00859449 0.0515512,0.00859449l0.0524173 0c0.0240591,0 0.0409567,-0.00286614 0.0506969,-0.00859449 0.0131772,-0.00744882 0.0197598,-0.0223425 0.0197598,-0.0446772l0 -0.296449 0.108268 0 0 0.288713zm0.354874 -0.225984l-0.123736 0c-0.0251969,0 -0.0423858,0.0028622 -0.0515512,0.00859449 -0.0131772,0.00801969 -0.0197598,0.0246339 -0.0197598,0.0498386l0 0.291283 -0.107413 0 0 -0.288709c0,-0.0429646 0.00687795,-0.0736102 0.020626,-0.0919449 0.0166142,-0.021189 0.0455394,-0.0317913 0.0867874,-0.0317913l0.195047 0 0 0.0627283zm0.374642 0.349717l-0.238012 0c-0.041248,0 -0.0701732,-0.0105945 -0.0867874,-0.0317913 -0.013752,-0.0183307 -0.020626,-0.0489764 -0.020626,-0.0919409l0 -0.164976c0,-0.0429646 0.00687402,-0.0736102 0.020626,-0.0919449 0.0166142,-0.021189 0.0455394,-0.0317913 0.0867874,-0.0317913l0.238012 0 0 0.0627283 -0.166701 0c-0.0251969,0 -0.0423858,0.0028622 -0.0515512,0.00859449 -0.0131772,0.00801969 -0.0197598,0.0246339 -0.0197598,0.0498386l0 0.175287c0,0.0223346 0.00658268,0.0372283 0.0197598,0.0446772 0.00974016,0.00572835 0.0269252,0.00859449 0.0515512,0.00859449l0.166701 0 0 0.0627244zm0.375492 -0.27926l0 -0.0171811c0,-0.0223425 -0.00687402,-0.0372362 -0.020622,-0.0446811 -0.00974016,-0.00573228 -0.0266378,-0.00859449 -0.0506969,-0.00859449l-0.0524173 0c-0.0240591,0 -0.0412402,0.0028622 -0.0515512,0.00859449 -0.0131772,0.00744488 -0.0197677,0.0223386 -0.0197677,0.0446811l0 0.0756142 0.123736 0c0.0252047,0 0.0423937,-0.0028622 0.0515591,-0.00859055 0.0131693,-0.00802362 0.0197598,-0.0246378 0.0197598,-0.0498425zm0.107406 -0.0025748c0,0.0429646 -0.00715748,0.0736102 -0.0214803,0.091937 -0.0160394,0.0211969 -0.044685,0.0317992 -0.0859252,0.0317992l-0.195055 0 0 0.0369449c0,0.0252087 0.00659055,0.041815 0.0197677,0.0498346 0.00916535,0.00572835 0.0263465,0.00859449 0.0515512,0.00859449l0.218256 0 0 0.0627244 -0.289575 0c-0.0412402,0 -0.0698819,-0.0105945 -0.0859252,-0.0317913 -0.0143228,-0.0183307 -0.0214803,-0.0489764 -0.0214803,-0.0919409l0 -0.164976c0,-0.0429646 0.00715748,-0.0736102 0.0214803,-0.0919449 0.0160433,-0.021189 0.044685,-0.0317913 0.0859252,-0.0317913l0.195055 0c0.0429606,0 0.0724685,0.0114567 0.0885,0.034374 0.0126024,0.0189055 0.0189055,0.0509803 0.0189055,0.0962362zm0.593744 0.21911l0 -0.163256 -0.12287 0c-0.0252087,0 -0.0423898,0.0028622 -0.0515551,0.00859055 -0.0131732,0.00801969 -0.0197677,0.0246339 -0.0197677,0.0498346l0 0.0515591c0,0.0223346 0.00659449,0.0372283 0.0197677,0.0446772 0.00974016,0.00572835 0.0269173,0.00859449 0.0515551,0.00859449l0.12287 0zm0.108268 0.0627244l-0.302461 0c-0.0412402,0 -0.0701654,-0.0105945 -0.0867795,-0.0317913 -0.013748,-0.0183307 -0.020626,-0.0489764 -0.020626,-0.0919409l0 -0.0412402c0,-0.0429685 0.00687795,-0.0736142 0.020626,-0.0919449 0.0166142,-0.0211969 0.0455394,-0.0317913 0.0867795,-0.0317913l0.194193 0 0 -0.0025748c0,-0.0252047 -0.00630315,-0.0418189 -0.0188976,-0.0498386 -0.00916535,-0.00573228 -0.0263543,-0.00859449 -0.0515591,-0.00859449l-0.218252 0 0 -0.0627283 0.288709 0c0.0415315,0 0.0704646,0.0106024 0.0866457,0.0317913 0.0144646,0.0183346 0.021622,0.0489803 0.021622,0.0919449l0 0.288709zm0.166843 -0.00343701l-0.108268 0 0 -0.529299 0.108268 0 0 0.529299zm0.181307 0l-0.108268 0 0 -0.529299 0.108268 0 0 0.529299zm0.181307 0l-0.108268 0 0 -0.409008 0.108268 0 0 0.409008zm0.369335 -0.275823l0 -0.0171811c0,-0.0223425 -0.00687402,-0.0372362 -0.020622,-0.0446811 -0.00974016,-0.00573228 -0.0266339,-0.00859449 -0.0506969,-0.00859449l-0.0524134 0c-0.024063,0 -0.0412402,0.0028622 -0.0515512,0.00859449 -0.0131772,0.00744488 -0.0197717,0.0223386 -0.0197717,0.0446811l0 0.0756142 0.123736 0c0.0252087,0 0.0423937,-0.0028622 0.0515591,-0.00859055 0.0131693,-0.00802362 0.0197598,-0.0246378 0.0197598,-0.0498425zm0.107406 -0.0025748c0,0.0429646 -0.00715748,0.0736102 -0.0214803,0.091937 -0.0160394,0.0211969 -0.044685,0.0317992 -0.0859252,0.0317992l-0.195055 0 0 0.0369449c0,0.0252087 0.00659449,0.041815 0.0197717,0.0498346 0.00916535,0.00572835 0.0263425,0.00859449 0.0515512,0.00859449l0.218252 0 0 0.0627244 -0.289575 0c-0.0412402,0 -0.0698819,-0.0105945 -0.0859252,-0.0317913 -0.0143189,-0.0183307 -0.0214764,-0.0489764 -0.0214764,-0.0919409l0 -0.164976c0,-0.0429646 0.00715748,-0.0736102 0.0214764,-0.0919449 0.0160433,-0.021189 0.044685,-0.0317913 0.0859252,-0.0317913l0.195055 0c0.0429606,0 0.0724685,0.0114567 0.0885,0.034374 0.0126063,0.0189055 0.0189055,0.0509803 0.0189055,0.0962362zm0.449394 0.163256c0,0.0429685 -0.00687402,0.072748 -0.0206181,0.0893622 -0.0154646,0.0183346 -0.0443937,0.0275 -0.0867874,0.0275l-0.287846 0 0 -0.0627283 0.216528 0c0.0252087,0 0.0426772,-0.0028622 0.0524134,-0.00859055 0.0126063,-0.00802362 0.0189055,-0.0240551 0.0189055,-0.0481181 0,-0.0246339 -0.00629921,-0.0412441 -0.0189055,-0.0498386 -0.00973622,-0.00572835 -0.0272047,-0.00859449 -0.0524134,-0.00859449l-0.123728 0c-0.0418189,0 -0.0701732,-0.00744488 -0.0850669,-0.0223346 -0.0148976,-0.0148937 -0.0223425,-0.043248 -0.0223425,-0.0850709 0,-0.0435354 0.00687402,-0.0744646 0.020622,-0.0927992 0.0160394,-0.0217677 0.0449685,-0.0326535 0.0867874,-0.0326535l0.280118 0 0 0.0627283 -0.208803 0c-0.0252008,0 -0.0423858,0.0028622 -0.0515551,0.00859449 -0.0131732,0.00801969 -0.0197598,0.0246339 -0.0197598,0.0498386 0,0.0217638 0.00544094,0.0358031 0.0163228,0.0421024 0.00744882,0.00458268 0.0229173,0.00687402 0.0463976,0.00687402l0.132327 0c0.041248,0 0.0701772,0.0105945 0.0867874,0.0317913 0.0137441,0.0183346 0.0206181,0.0489803 0.0206181,0.091937z"/>
  </g>
 </g>
</svg>
